<svg width="43" height="45" viewBox="0 0 43 45" fill="none" xmlns="http://www.w3.org/2000/svg">
<path d="M17.8973 10.7313C18.3407 10.5186 18.5112 9.95153 18.2724 9.52619C17.5903 8.07296 16.0214 7.7894 15.237 7.82484C14.7595 7.86029 14.3843 8.28563 14.4184 8.78185C14.4525 9.27808 14.8618 9.66797 15.3393 9.63253C15.3393 9.63253 16.3625 9.59708 16.7377 10.3414C16.8741 10.6604 17.2151 10.8376 17.5221 10.8376C17.6244 10.8022 17.7608 10.8022 17.8973 10.7313Z" fill="#DD943B"/>
<path d="M15.2712 17.4662C15.2712 17.4662 14.2139 17.4308 13.9069 16.6863C13.7023 16.2254 13.1907 16.0126 12.7473 16.1899C12.3039 16.4026 12.0993 16.9344 12.2698 17.3953C12.8837 18.8844 14.4185 19.2744 15.203 19.2744C15.6805 19.2744 16.0556 18.8844 16.0556 18.3881C16.1238 17.8917 15.7487 17.4662 15.2712 17.4662Z" fill="#DD943B"/>
<path d="M20.4554 15.8006C20.4554 15.8006 19.4322 15.7651 19.0911 15.0205C18.8865 14.5596 18.3749 14.3468 17.9315 14.5241C17.4881 14.7369 17.2835 15.2687 17.454 15.7297C18.0679 17.2189 19.6027 17.6089 20.3871 17.6089C20.8646 17.6089 21.2739 17.2189 21.2739 16.7225C21.3421 16.1906 20.9328 15.8006 20.4554 15.8006Z" fill="#DD943B"/>
<path d="M27.3107 23.3499C30.7895 17.4305 30.0733 9.63239 25.162 4.49275C19.398 -1.49758 10.0529 -1.49758 4.32298 4.49275C-1.441 10.4831 -1.441 20.1952 4.32298 26.1501C9.2343 31.2543 16.7718 31.9987 22.4676 28.3832C23.4226 27.7806 24.3434 27.0363 25.1961 26.1501C26.0146 25.2994 26.6968 24.3778 27.3107 23.3499ZM6.43758 23.9525C1.86732 19.2027 1.86732 11.4756 6.43758 6.72583C11.0078 1.9761 18.443 1.9761 23.0133 6.72583C27.5835 11.4756 27.5835 19.2027 23.0133 23.9525C18.443 28.7022 11.0419 28.7022 6.43758 23.9525Z" fill="#DD943B"/>
<path d="M28.7432 24.6616C28.1634 25.6541 27.4472 26.6111 26.5945 27.4972C25.7418 28.3834 24.8551 29.0923 23.866 29.7303L26.6286 32.6013L31.5059 27.5327L28.7432 24.6616Z" fill="#DD943B"/>
<path d="M41.0556 36.2879L31.915 29.6594L28.5044 33.204L34.8823 42.7036C36.4512 45.0785 39.7254 45.3621 41.6695 43.3416C43.6136 41.2858 43.3407 37.9184 41.0556 36.2879Z" fill="#DD943B"/>
</svg>
