<svg width="32" height="15" viewBox="0 0 32 15" fill="none" xmlns="http://www.w3.org/2000/svg">
<path d="M7.10532 14.3465C5.83381 14.3462 4.58566 14.0047 3.49108 13.3577C2.3965 12.7107 1.4956 11.7818 0.882354 10.6679C0.269109 9.55408 -0.0340077 8.29607 0.00462369 7.02514C0.0432551 5.75422 0.42222 4.51694 1.10198 3.44238C1.78175 2.36783 2.7374 1.49536 3.86926 0.916011C5.00112 0.336658 6.2677 0.0716399 7.53689 0.148605C8.80607 0.22557 10.0313 0.641698 11.0849 1.35358C12.1385 2.06546 12.9817 3.04701 13.5266 4.19583H28.4217L31.4669 7.24102L28.4217 10.2862L26.3915 8.25609L24.3614 10.2862L22.3313 8.25609L20.3012 10.2862L18.271 8.25609L16.2409 10.2862H13.5266C12.9502 11.5013 12.0409 12.5279 10.9042 13.2466C9.7675 13.9654 8.45018 14.3467 7.10532 14.3465ZM5.0752 9.27115C5.61362 9.27115 6.12999 9.05726 6.51071 8.67654C6.89144 8.29582 7.10532 7.77945 7.10532 7.24102C7.10532 6.7026 6.89144 6.18623 6.51071 5.80551C6.12999 5.42478 5.61362 5.21089 5.0752 5.21089C4.53677 5.21089 4.0204 5.42478 3.63968 5.80551C3.25896 6.18623 3.04507 6.7026 3.04507 7.24102C3.04507 7.77945 3.25896 8.29582 3.63968 8.67654C4.0204 9.05726 4.53677 9.27115 5.0752 9.27115Z" fill="#DD943B"/>
</svg>
