<svg width="45" height="45" viewBox="0 0 45 45" fill="none" xmlns="http://www.w3.org/2000/svg">
<path d="M29.575 12.5H18.75V10H28.475C28.1217 8.74204 28.0381 7.42362 28.2299 6.13113C28.4216 4.83863 28.8842 3.60123 29.5875 2.5H10C9.33696 2.5 8.70107 2.76339 8.23223 3.23223C7.76339 3.70107 7.5 4.33696 7.5 5V40C7.5 40.663 7.76339 41.2989 8.23223 41.7678C8.70107 42.2366 9.33696 42.5 10 42.5H35C35.663 42.5 36.2989 42.2366 36.7678 41.7678C37.2366 41.2989 37.5 40.663 37.5 40V16.875C35.9169 16.8753 34.3595 16.4741 32.9736 15.709C31.5876 14.9439 30.4183 13.8398 29.575 12.5ZM16.25 32.5H13.75V30H16.25V32.5ZM16.25 27.5H13.75V25H16.25V27.5ZM16.25 22.5H13.75V20H16.25V22.5ZM16.25 17.5H13.75V15H16.25V17.5ZM16.25 12.5H13.75V10H16.25V12.5ZM31.25 32.5H18.75V30H31.25V32.5ZM31.25 27.5H18.75V25H31.25V27.5ZM31.25 22.5H18.75V20H31.25V22.5ZM31.25 17.5H18.75V15H31.25V17.5Z" fill="#DD943B"/>
<path d="M37.5 13.75C40.9518 13.75 43.75 10.9518 43.75 7.5C43.75 4.04822 40.9518 1.25 37.5 1.25C34.0482 1.25 31.25 4.04822 31.25 7.5C31.25 10.9518 34.0482 13.75 37.5 13.75Z" fill="#DD943B"/>
</svg>
