<svg width="21" height="21" viewBox="0 0 21 21" fill="none" xmlns="http://www.w3.org/2000/svg">
<path d="M18.5 7.99019V15.1172C18.5 15.7802 18.2366 16.4161 17.7678 16.885C17.2989 17.3538 16.663 17.6172 16 17.6172H5C4.33696 17.6172 3.70107 17.3538 3.23223 16.885C2.76339 16.4161 2.5 15.7802 2.5 15.1172V7.99019L10.246 12.5482C10.323 12.5936 10.4107 12.6175 10.5 12.6175C10.5893 12.6175 10.677 12.5936 10.754 12.5482L18.5 7.99019ZM16 4.61719C16.6151 4.61709 17.2087 4.84379 17.6672 5.25393C18.1257 5.66406 18.4168 6.22883 18.485 6.84019L10.5 11.5372L2.515 6.84019C2.58316 6.22883 2.87432 5.66406 3.33279 5.25393C3.79127 4.84379 4.38485 4.61709 5 4.61719H16Z" fill="#DD943B"/>
</svg>
