<svg width="25" height="25" viewBox="0 0 25 25" fill="none" xmlns="http://www.w3.org/2000/svg">
<path d="M12.5 14.6172C14.706 14.6172 16.5 12.8232 16.5 10.6172C16.5 8.41119 14.706 6.61719 12.5 6.61719C10.294 6.61719 8.5 8.41119 8.5 10.6172C8.5 12.8232 10.294 14.6172 12.5 14.6172ZM12.5 8.61719C13.603 8.61719 14.5 9.51419 14.5 10.6172C14.5 11.7202 13.603 12.6172 12.5 12.6172C11.397 12.6172 10.5 11.7202 10.5 10.6172C10.5 9.51419 11.397 8.61719 12.5 8.61719Z" fill="#DD943B"/>
<path d="M11.92 22.4312C12.0892 22.5521 12.292 22.617 12.5 22.617C12.7079 22.617 12.9107 22.5521 13.08 22.4312C13.384 22.2162 20.529 17.0572 20.5 10.6172C20.5 6.20619 16.911 2.61719 12.5 2.61719C8.08897 2.61719 4.49997 6.20619 4.49997 10.6122C4.47097 17.0572 11.616 22.2162 11.92 22.4312ZM12.5 4.61719C15.809 4.61719 18.5 7.30819 18.5 10.6222C18.521 15.0602 14.112 19.0452 12.5 20.3522C10.889 19.0442 6.47897 15.0582 6.49997 10.6172C6.49997 7.30819 9.19097 4.61719 12.5 4.61719Z" fill="#DD943B"/>
</svg>
