<svg width="501" height="471" viewBox="0 0 501 471" fill="none" xmlns="http://www.w3.org/2000/svg">
<path d="M95.2998 324.534C88.1203 331.675 88.1203 343.236 95.2998 350.377L134.616 389.481C141.796 396.622 153.42 396.622 160.6 389.481L250.515 300.392L184.873 235.105L95.2998 324.534ZM215.301 294.271C218.378 296.991 218.378 301.752 215.301 304.472L152.052 367.379C150.685 368.739 148.634 369.419 146.924 369.419C145.215 369.419 143.163 368.739 141.796 367.379C138.719 364.318 138.719 359.898 141.796 357.177L205.044 294.271C208.121 291.211 212.566 291.211 215.301 294.271ZM191.027 270.128C194.104 273.189 194.104 277.609 191.027 280.329L127.779 343.236C126.411 344.596 124.36 345.276 122.65 345.276C120.941 345.276 118.89 344.596 117.522 343.236C114.445 340.516 114.445 335.755 117.522 333.035L181.113 269.788C183.506 267.068 188.292 267.068 191.027 270.128Z" fill="#DD943B"/>
<path d="M368.123 136.155L386.926 132.075C387.952 131.735 388.636 131.395 389.319 130.375L410.516 96.371C411.542 95.0109 411.2 92.9707 409.832 91.9506L394.448 76.649C393.08 75.2889 391.371 75.2889 390.003 75.9689L355.815 97.0511C354.789 97.7312 354.447 98.4113 354.105 99.4314L350.003 118.133L273.763 194.301L291.883 212.323L368.123 136.155Z" fill="#DD943B"/>
<path d="M396.499 297.331C381.114 282.03 358.208 277.949 338.721 284.75L200.6 147.036C207.779 127.654 203.677 105.211 187.95 89.5698C172.565 74.2682 150.001 70.1877 130.514 77.3285L156.155 102.831C167.095 113.712 167.095 131.054 156.155 141.935C145.215 152.816 127.779 152.816 116.838 141.935L91.197 116.433C84.0175 135.815 88.1201 158.257 103.847 173.899C119.231 189.2 142.138 193.281 161.625 186.48L299.746 323.854C292.566 343.236 296.669 365.678 312.396 381.32C327.78 396.622 350.687 400.702 370.174 393.901L344.533 368.399C333.592 357.518 333.592 340.176 344.533 329.295C355.473 318.414 372.909 318.414 383.849 329.295L409.491 354.797C416.328 335.075 412.226 312.633 396.499 297.331Z" fill="#DD943B"/>
</svg>
