<svg width="243" height="243" viewBox="0 0 243 243" fill="none" xmlns="http://www.w3.org/2000/svg">
<path d="M83.776 204.157L74.5507 178.319L47.4407 174.002L52.4206 146.973L31.0773 129.691L48.8599 108.751L39.0779 83.1188L64.9074 73.8709L69.2403 46.7425L96.2503 51.7072L113.536 30.3401L134.453 48.1189L160.077 38.3141L169.302 64.1522L196.412 68.4695L191.432 95.4983L212.775 112.78L194.993 133.72L204.775 159.352L178.945 168.6L174.613 195.729L147.602 190.764L130.316 212.131L109.4 194.352L83.776 204.157ZM79.0051 172.939L87.3616 196.364L110.587 187.47L129.56 203.594L145.171 184.362L169.521 188.797L173.453 164.191L196.988 155.77L188.115 132.537L204.243 113.543L185.033 97.9359L189.481 73.5681L164.892 69.6512L156.491 46.1076L133.266 55.0017L114.293 38.8768L98.6822 58.1089L74.3313 53.6743L70.4003 78.2801L46.8645 86.7013L55.7379 109.934L39.6097 128.928L58.8203 144.535L54.3719 168.903L79.0051 172.939Z" fill="#D57009" fill-opacity="0.15"/>
<path d="M152.902 98.2304L87.0942 140.287L90.3142 145.334L156.122 103.278L152.902 98.2304Z" fill="#D57009" fill-opacity="0.15"/>
<path d="M102.653 105.765C100.499 104.774 98.6873 103.166 97.4475 101.144C96.2076 99.1227 95.595 96.7781 95.687 94.4072C95.7791 92.0363 96.5718 89.7454 97.9648 87.8244C99.3577 85.9033 101.289 84.4383 103.513 83.6146C105.737 82.791 108.155 82.6456 110.461 83.197C112.767 83.7483 114.858 84.9716 116.468 86.7121C118.079 88.4527 119.137 90.6323 119.509 92.9753C119.881 95.3184 119.55 97.7196 118.558 99.8754C117.228 102.766 114.805 105.011 111.822 106.115C108.839 107.22 105.541 107.094 102.653 105.765ZM110.175 89.415C109.098 88.9195 107.898 88.7548 106.727 88.9417C105.556 89.1285 104.467 89.6586 103.596 90.4649C102.726 91.2711 102.114 92.3173 101.838 93.4712C101.562 94.625 101.633 95.8347 102.044 96.9473C102.455 98.0598 103.186 99.0253 104.146 99.7215C105.105 100.418 106.25 100.814 107.435 100.859C108.62 100.904 109.791 100.597 110.802 99.9759C111.813 99.3549 112.617 98.4481 113.113 97.3702C113.778 95.9248 113.842 94.2746 113.291 92.7827C112.74 91.2908 111.619 90.0794 110.175 89.415Z" fill="#D57009" fill-opacity="0.15"/>
<path d="M131.17 158.507C129.016 157.516 127.204 155.908 125.964 153.886C124.724 151.864 124.112 149.52 124.204 147.149C124.296 144.778 125.089 142.487 126.482 140.566C127.875 138.645 129.805 137.18 132.03 136.356C134.254 135.533 136.672 135.387 138.978 135.939C141.284 136.49 143.375 137.713 144.985 139.454C146.595 141.194 147.654 143.374 148.025 145.717C148.397 148.06 148.067 150.461 147.075 152.617C145.745 155.508 143.322 157.753 140.339 158.857C137.356 159.962 134.058 159.836 131.17 158.507ZM138.692 142.157C137.615 141.661 136.415 141.496 135.244 141.683C134.073 141.87 132.984 142.4 132.113 143.207C131.243 144.013 130.631 145.059 130.355 146.213C130.078 147.367 130.15 148.576 130.561 149.689C130.972 150.802 131.703 151.767 132.663 152.463C133.622 153.159 134.767 153.555 135.952 153.601C137.136 153.646 138.308 153.339 139.319 152.718C140.33 152.097 141.134 151.19 141.63 150.112C142.295 148.666 142.359 147.016 141.808 145.524C141.257 144.033 140.136 142.821 138.692 142.157Z" fill="#D57009" fill-opacity="0.15"/>
</svg>
