<svg width="55" height="54" viewBox="0 0 55 54" fill="none" xmlns="http://www.w3.org/2000/svg">
<path d="M50.3834 33.2523C50.9395 31.1645 54.2086 29.3613 54.2086 27.0971C54.2086 24.8329 50.9395 23.0298 50.384 20.9419C49.8088 18.7814 51.7241 15.5832 50.6338 13.6913C49.5275 11.7726 45.7996 11.8459 44.2481 10.2881C42.6966 8.73102 42.7696 4.98954 40.8573 3.87918C38.9723 2.78491 35.7856 4.70718 33.6329 4.12997C31.5526 3.57241 29.756 0.291382 27.5 0.291382C25.244 0.291382 23.4474 3.57241 21.3671 4.12997C19.2144 4.70718 16.0278 2.78491 14.1427 3.87918C12.231 4.98954 12.304 8.73102 10.7519 10.2881C9.20045 11.8453 5.47251 11.772 4.36618 13.6913C3.27588 15.5832 5.19118 18.7814 4.61606 20.9419C4.06052 23.0298 0.791382 24.8329 0.791382 27.0971C0.791382 29.3613 4.06052 31.1645 4.61606 33.2523C5.19118 35.4129 3.27588 38.6111 4.36618 40.503C5.47251 42.4217 9.20045 42.3484 10.7519 43.9061C12.3034 45.4633 12.2304 49.2047 14.1427 50.3151C16.0278 51.4094 19.2144 49.4871 21.3671 50.0643C23.4474 50.6219 25.244 53.9029 27.5 53.9029C29.756 53.9029 31.5526 50.6219 33.6329 50.0643C35.7856 49.4871 38.9723 51.4094 40.8573 50.3151C42.769 49.2047 42.696 45.4633 44.2481 43.9061C45.7996 42.349 49.5275 42.4223 50.6338 40.503C51.7241 38.6111 49.8083 35.4129 50.3834 33.2523ZM24.0481 36.2176L16.4652 28.5595L20.148 24.8401L24.1555 28.8854L34.9594 17.9766L38.5348 21.5871L24.0481 36.2176Z" fill="#DD943B"/>
</svg>
