<svg width="255" height="62" viewBox="0 0 255 62" fill="none" xmlns="http://www.w3.org/2000/svg">
<path d="M2.79041 57.386C2.21568 57.9826 2.23343 58.9322 2.83007 59.5069C3.4267 60.0816 4.37629 60.0639 4.95102 59.4673L2.79041 57.386ZM240.364 22.2061C241.102 22.582 242.005 22.2883 242.381 21.5501C242.757 20.8119 242.463 19.9087 241.725 19.5328L240.364 22.2061ZM4.95102 59.4673C5.61485 58.7781 6.29894 58.0937 7.00278 57.4142L4.9191 55.2559C4.18992 55.9599 3.48015 56.6699 2.79041 57.386L4.95102 59.4673ZM11.3672 53.4743C12.8378 52.2293 14.3747 51.003 15.9747 49.7963L14.1682 47.4012C12.5257 48.64 10.9445 49.9014 9.42879 51.1847L11.3672 53.4743ZM20.781 46.3569C22.3875 45.2647 24.0457 44.1905 25.7528 43.1351L24.1752 40.5834C22.4329 41.6606 20.7382 42.7583 19.0943 43.876L20.781 46.3569ZM30.8546 40.118C32.5463 39.1603 34.2785 38.22 36.0487 37.2975L34.6622 34.6371C32.8625 35.575 31.0997 36.5319 29.3767 37.5073L30.8546 40.118ZM41.3459 34.6442C43.1102 33.7946 44.9069 32.9619 46.7339 32.1467L45.5114 29.4071C43.6587 30.2338 41.8355 31.0786 40.0443 31.9412L41.3459 34.6442ZM52.2016 29.7961C54.0138 29.0454 55.852 28.3114 57.7141 27.5944L56.6361 24.7947C54.7511 25.5206 52.8896 26.2639 51.0535 27.0244L52.2016 29.7961ZM63.2776 25.5279C65.1317 24.8639 67.0066 24.2163 68.9003 23.5856L67.9524 20.7393C66.0378 21.377 64.1417 22.0318 62.266 22.7036L63.2776 25.5279ZM74.5741 21.7639C76.4549 21.182 78.3519 20.6166 80.2634 20.0679L79.4358 17.1844C77.5048 17.7386 75.5881 18.3099 73.6875 18.8979L74.5741 21.7639ZM85.9965 18.4841C87.9083 17.9762 89.8325 17.485 91.7676 17.0107L91.0535 14.0969C89.0998 14.5758 87.1568 15.0718 85.2262 15.5847L85.9965 18.4841ZM97.5581 15.6495C99.4882 15.2149 101.427 14.7972 103.374 14.3967L102.769 11.4582C100.805 11.8625 98.8474 12.2841 96.8991 12.7228L97.5581 15.6495ZM109.216 13.2503C111.164 12.8865 113.118 12.5401 115.076 12.2113L114.58 9.25271C112.604 9.58454 110.632 9.93415 108.666 10.3012L109.216 13.2503ZM120.954 11.2791C122.917 10.9862 124.883 10.7111 126.849 10.4542L126.461 7.47946C124.476 7.73873 122.492 8.01635 120.511 8.31201L120.954 11.2791ZM132.755 9.73793C134.73 9.51688 136.705 9.31448 138.678 9.13102L138.4 6.14391C136.409 6.32911 134.415 6.53343 132.421 6.75655L132.755 9.73793ZM144.608 8.63645C146.589 8.49036 148.566 8.36379 150.538 8.25705L150.376 5.26143C148.384 5.36925 146.387 5.49707 144.387 5.64458L144.608 8.63645ZM156.489 7.99486C158.479 7.92741 160.462 7.88074 162.437 7.85514L162.398 4.8554C160.402 4.88126 158.398 4.92844 156.387 4.99658L156.489 7.99486ZM168.375 7.8423C170.368 7.85984 172.351 7.89961 174.321 7.96195L174.416 4.96345C172.423 4.90037 170.417 4.86015 168.401 4.84242L168.375 7.8423ZM180.266 8.22108C182.256 8.33207 184.231 8.46709 186.189 8.62649L186.433 5.63637C184.448 5.47486 182.448 5.33811 180.433 5.22573L180.266 8.22108ZM192.085 9.18602C194.074 9.40235 196.042 9.64513 197.989 9.91475L198.401 6.94312C196.424 6.66937 194.426 6.42301 192.409 6.20361L192.085 9.18602ZM203.858 10.8211C205.826 11.1573 207.767 11.5228 209.68 11.9178L210.287 8.97974C208.339 8.57755 206.364 8.2058 204.363 7.86398L203.858 10.8211ZM215.446 13.2197C217.383 13.6963 219.287 14.2056 221.154 14.7481L221.991 11.8672C220.082 11.3127 218.138 10.7927 216.162 10.3066L215.446 13.2197ZM226.801 16.5289C228.692 17.1747 230.54 17.858 232.341 18.5792L233.456 15.7942C231.605 15.0529 229.709 14.3517 227.771 13.6898L226.801 16.5289ZM237.746 20.9252C238.632 21.3418 239.505 21.7687 240.364 22.2061L241.725 19.5328C240.837 19.0807 239.936 18.6398 239.022 18.2101L237.746 20.9252ZM1.71011 56.3453C0.560644 57.5386 0.596153 59.4377 1.78942 60.5872C2.98269 61.7367 4.88185 61.7012 6.03132 60.5079L1.71011 56.3453ZM239.683 23.5427C241.16 24.2946 242.966 23.7073 243.718 22.2308C244.47 20.7544 243.882 18.948 242.406 18.1961L239.683 23.5427ZM6.03132 60.5079C6.6822 59.8322 7.35344 59.1607 8.04463 58.4934L3.87725 54.1768C3.13541 54.893 2.4128 55.6158 1.71011 56.3453L6.03132 60.5079ZM12.3365 54.6191C13.7844 53.3933 15.2993 52.1845 16.878 50.9938L13.2649 46.2036C11.6011 47.4585 9.99793 48.7375 8.45957 50.0399L12.3365 54.6191ZM21.6244 47.5973C23.2122 46.5179 24.8521 45.4555 26.5416 44.411L23.3864 39.3076C21.6265 40.3957 19.9136 41.5051 18.251 42.6355L21.6244 47.5973ZM31.5935 41.4234C33.2696 40.4746 34.9865 39.5425 36.7419 38.6277L33.969 33.3069C32.1544 34.2525 30.3765 35.2177 28.6378 36.2019L31.5935 41.4234ZM41.9967 35.9956C43.7475 35.1525 45.531 34.326 47.3451 33.5165L44.9002 28.0373C43.0346 28.8697 41.1982 29.7207 39.3935 30.5898L41.9967 35.9956ZM52.7756 31.1819C54.576 30.4362 56.4024 29.7068 58.2531 28.9942L56.097 23.3949C54.2006 24.1252 52.3274 24.8732 50.4795 25.6386L52.7756 31.1819ZM63.7834 26.9401C65.6267 26.2799 67.491 25.636 69.3743 25.0088L67.4785 19.3161C65.5534 19.9573 63.6467 20.6158 61.7602 21.2915L63.7834 26.9401ZM75.0175 23.1969C76.8883 22.6181 78.7755 22.0556 80.6773 21.5097L79.0219 15.7426C77.0812 16.2996 75.1547 16.8739 73.2441 17.4649L75.0175 23.1969ZM86.3816 19.9338C88.284 19.4284 90.1988 18.9396 92.1246 18.4676L90.6964 12.6401C88.7334 13.1211 86.7811 13.6195 84.8411 14.1349L86.3816 19.9338ZM97.8877 17.1129C99.8086 16.6803 101.739 16.2646 103.676 15.8659L102.467 9.98901C100.493 10.3951 98.5269 10.8187 96.5696 11.2594L97.8877 17.1129ZM109.492 14.7248C111.431 14.3627 113.376 14.0179 115.325 13.6906L114.331 7.77342C112.346 8.10676 110.365 8.45796 108.39 8.82671L109.492 14.7248ZM121.176 12.7627C123.13 12.4711 125.086 12.1973 127.043 11.9415L126.266 5.99209C124.272 6.25255 122.28 6.53144 120.29 6.82844L121.176 12.7627ZM132.922 11.2286C134.888 11.0086 136.853 10.8072 138.817 10.6246L138.261 4.65035C136.26 4.83642 134.257 5.0417 132.255 5.26585L132.922 11.2286ZM144.718 10.1324C146.689 9.98701 148.657 9.86106 150.619 9.75486L150.295 3.76363C148.293 3.87197 146.287 4.00042 144.277 4.14864L144.718 10.1324ZM156.54 9.49399C158.519 9.4269 160.492 9.38047 162.456 9.35502L162.379 3.35552C160.372 3.38153 158.357 3.42895 156.336 3.49744L156.54 9.49399ZM168.362 9.34225C170.344 9.35968 172.315 9.39922 174.274 9.4612L174.464 3.4642C172.458 3.40075 170.441 3.3603 168.414 3.34248L168.362 9.34225ZM180.182 9.71875C182.16 9.82905 184.122 9.96321 186.068 10.1215L186.555 4.14132C184.557 3.97875 182.544 3.84113 180.517 3.72806L180.182 9.71875ZM191.923 10.6772C193.897 10.892 195.852 11.133 197.783 11.4006L198.607 5.4573C196.615 5.18148 194.603 4.93335 192.572 4.71241L191.923 10.6772ZM203.606 12.2997C205.557 12.6331 207.481 12.9954 209.377 13.3868L210.59 7.51072C208.625 7.10494 206.633 6.73003 204.616 6.38542L203.606 12.2997ZM215.088 14.6763C217.005 15.1481 218.889 15.652 220.736 16.1885L222.409 10.4267C220.48 9.86619 218.516 9.34085 216.521 8.85001L215.088 14.6763ZM226.316 17.9484C228.184 18.5862 230.007 19.2605 231.783 19.9717L234.014 14.4017C232.138 13.6503 230.217 12.9402 228.255 12.2703L226.316 17.9484ZM237.108 22.2828C237.98 22.6928 238.839 23.1127 239.683 23.5427L242.406 18.1961C241.504 17.7366 240.588 17.2888 239.66 16.8525L237.108 22.2828Z" fill="#DD943B"/>
<path d="M241.571 1.8796C241.18 0.734342 240.114 0.0900338 239.191 0.440493C238.267 0.790953 237.836 2.00347 238.227 3.14872L241.571 1.8796ZM248.027 26.3038L248.421 28.458C248.948 28.3841 249.395 28.0298 249.641 27.4911C249.888 26.9523 249.909 26.2848 249.699 25.6692L248.027 26.3038ZM227.626 26.9612C226.647 27.0988 226.03 28.1748 226.248 29.3645C226.466 30.5543 227.436 31.4072 228.415 31.2697L227.626 26.9612ZM238.227 3.14872L246.355 26.9383L249.699 25.6692L241.571 1.8796L238.227 3.14872ZM247.633 24.1495L227.626 26.9612L228.415 31.2697L248.421 28.458L247.633 24.1495Z" fill="#DD943B"/>
</svg>
