<svg width="196" height="57" viewBox="0 0 196 57" fill="none" xmlns="http://www.w3.org/2000/svg">
<rect width="196" height="56.8575" fill="#DD943B"/>
<path d="M62.7578 34.4287L60.8218 31.4367L58.9338 34.4287H54.6298L58.6778 28.7807L54.7738 23.2287H59.0138L60.9178 26.0447L62.7738 23.2287H66.8378L62.9498 28.6367L67.0778 34.4287H62.7578ZM71.8849 34.5887C70.9143 34.5887 70.0396 34.3967 69.2609 34.0127C68.4929 33.6181 67.8903 33.0794 67.4529 32.3967C67.0156 31.7034 66.7969 30.9194 66.7969 30.0447C66.7969 29.1701 67.0156 28.3914 67.4529 27.7087C67.8903 27.0154 68.4929 26.4767 69.2609 26.0927C70.0396 25.7087 70.9143 25.5167 71.8849 25.5167C72.8663 25.5167 73.7409 25.7087 74.5089 26.0927C75.2876 26.4767 75.8903 27.0154 76.3169 27.7087C76.7543 28.3914 76.9729 29.1701 76.9729 30.0447C76.9729 30.9194 76.7543 31.7034 76.3169 32.3967C75.8903 33.0794 75.2876 33.6181 74.5089 34.0127C73.7409 34.3967 72.8663 34.5887 71.8849 34.5887ZM71.8849 31.7727C72.3009 31.7727 72.6423 31.6234 72.9089 31.3247C73.1756 31.0154 73.3089 30.5887 73.3089 30.0447C73.3089 29.5007 73.1756 29.0794 72.9089 28.7807C72.6423 28.4821 72.3009 28.3327 71.8849 28.3327C71.4689 28.3327 71.1276 28.4821 70.8609 28.7807C70.5943 29.0794 70.4609 29.5007 70.4609 30.0447C70.4609 30.5887 70.5943 31.0154 70.8609 31.3247C71.1276 31.6234 71.4689 31.7727 71.8849 31.7727Z" fill="#402204"/>
<path d="M83.4807 23.2287C84.4514 23.2287 85.294 23.3887 86.0087 23.7087C86.734 24.0287 87.2887 24.4874 87.6727 25.0847C88.0567 25.6821 88.2487 26.3914 88.2487 27.2127C88.2487 28.0234 88.0567 28.7327 87.6727 29.3407C87.2887 29.9381 86.734 30.3967 86.0087 30.7167C85.294 31.0367 84.4514 31.1967 83.4807 31.1967H80.9527V34.4287H78.8727V23.2287H83.4807ZM83.3847 29.4367C84.2914 29.4367 84.9794 29.2447 85.4487 28.8607C85.918 28.4767 86.1527 27.9274 86.1527 27.2127C86.1527 26.4981 85.918 25.9487 85.4487 25.5647C84.9794 25.1807 84.2914 24.9887 83.3847 24.9887H80.9527V29.4367H83.3847ZM97.9612 30.2047C97.9612 30.3434 97.9505 30.5407 97.9292 30.7967H91.2252C91.3425 31.4261 91.6465 31.9274 92.1372 32.3007C92.6385 32.6634 93.2572 32.8447 93.9932 32.8447C94.9319 32.8447 95.7052 32.5354 96.3132 31.9167L97.3852 33.1487C97.0012 33.6074 96.5159 33.9541 95.9292 34.1887C95.3425 34.4234 94.6812 34.5407 93.9452 34.5407C93.0065 34.5407 92.1799 34.3541 91.4652 33.9807C90.7505 33.6074 90.1959 33.0901 89.8012 32.4287C89.4172 31.7567 89.2252 30.9994 89.2252 30.1567C89.2252 29.3247 89.4119 28.5781 89.7852 27.9167C90.1692 27.2447 90.6972 26.7221 91.3692 26.3487C92.0412 25.9754 92.7985 25.7887 93.6412 25.7887C94.4732 25.7887 95.2145 25.9754 95.8652 26.3487C96.5265 26.7114 97.0385 27.2287 97.4012 27.9007C97.7745 28.5621 97.9612 29.3301 97.9612 30.2047ZM93.6412 27.3887C93.0012 27.3887 92.4572 27.5807 92.0092 27.9647C91.5719 28.3381 91.3052 28.8394 91.2092 29.4687H96.0572C95.9719 28.8501 95.7105 28.3487 95.2732 27.9647C94.8359 27.5807 94.2919 27.3887 93.6412 27.3887ZM108.549 34.4287V28.7647L105.669 33.5327H104.805L101.973 28.7487V34.4287H100.149V25.8847H102.245L105.285 31.2287L108.469 25.8847H110.341L110.357 34.4287H108.549ZM116.847 34.5407C115.983 34.5407 115.205 34.3541 114.511 33.9807C113.818 33.6074 113.274 33.0901 112.879 32.4287C112.495 31.7567 112.303 30.9994 112.303 30.1567C112.303 29.3141 112.495 28.5621 112.879 27.9007C113.274 27.2394 113.818 26.7221 114.511 26.3487C115.205 25.9754 115.983 25.7887 116.847 25.7887C117.722 25.7887 118.506 25.9754 119.199 26.3487C119.893 26.7221 120.431 27.2394 120.815 27.9007C121.21 28.5621 121.407 29.3141 121.407 30.1567C121.407 30.9994 121.21 31.7567 120.815 32.4287C120.431 33.0901 119.893 33.6074 119.199 33.9807C118.506 34.3541 117.722 34.5407 116.847 34.5407ZM116.847 32.8287C117.583 32.8287 118.191 32.5834 118.671 32.0927C119.151 31.6021 119.391 30.9567 119.391 30.1567C119.391 29.3567 119.151 28.7114 118.671 28.2207C118.191 27.7301 117.583 27.4847 116.847 27.4847C116.111 27.4847 115.503 27.7301 115.023 28.2207C114.554 28.7114 114.319 29.3567 114.319 30.1567C114.319 30.9567 114.554 31.6021 115.023 32.0927C115.503 32.5834 116.111 32.8287 116.847 32.8287ZM123.383 25.8847H125.383V29.3567H129.687V25.8847H131.687V34.4287H129.687V31.0527H125.383V34.4287H123.383V25.8847ZM141.135 27.5807H138.143V34.4287H136.143V27.5807H133.135V25.8847H141.135V27.5807Z" fill="white"/>
</svg>
