<svg width="17" height="14" viewBox="0 0 17 14" fill="none" xmlns="http://www.w3.org/2000/svg">
<path d="M16.5 3.99019V11.1172C16.5 11.7802 16.2366 12.4161 15.7678 12.885C15.2989 13.3538 14.663 13.6172 14 13.6172H3C2.33696 13.6172 1.70107 13.3538 1.23223 12.885C0.763392 12.4161 0.5 11.7802 0.5 11.1172V3.99019L8.246 8.54819C8.32295 8.59357 8.41066 8.61751 8.5 8.61751C8.58934 8.61751 8.67705 8.59357 8.754 8.54819L16.5 3.99019ZM14 0.617188C14.6151 0.617091 15.2087 0.843794 15.6672 1.25393C16.1257 1.66406 16.4168 2.22883 16.485 2.84019L8.5 7.53719L0.515 2.84019C0.583158 2.22883 0.874324 1.66406 1.33279 1.25393C1.79127 0.843794 2.38485 0.617091 3 0.617188H14Z" fill="#DD943B"/>
</svg>
