<svg width="35" height="36" viewBox="0 0 35 36" fill="none" xmlns="http://www.w3.org/2000/svg">
<path d="M0.582891 11.9534C0.291446 12.2563 0 12.8621 0 13.7707V15.5881C0 16.1939 0.291446 16.7996 0.582891 17.4054L10.2006 27.4008V16.1939C10.2006 14.3765 11.3664 13.1649 13.115 13.1649C14.8637 13.1649 16.0295 14.3765 16.0295 16.1939V32.2471C16.0295 32.2471 16.0295 32.2471 16.3209 32.2471H18.0696C18.6525 32.2471 19.2354 31.9442 19.8183 31.6413L30.6018 20.7372L11.6578 1.04932L0.582891 11.9534Z" fill="#DD943B"/>
<path d="M34.3907 13.9603L21.5671 0.633093C20.6927 0.0273117 19.527 -0.275579 18.6526 0.330202L13.9895 2.75333L32.3506 21.8354L34.6821 16.9892C35.265 16.0805 34.9736 14.869 34.3907 13.9603Z" fill="#DD943B"/>
<path d="M14.5725 12.9769C14.5725 12.3711 13.9896 11.4624 13.1153 11.4624C12.2409 11.4624 11.658 12.3711 11.658 12.9769V32.6647H2.91467V35.6936H26.2303V32.6647H14.5725V12.9769Z" fill="#DD943B"/>
</svg>
