<svg width="25" height="25" viewBox="0 0 25 25" fill="none" xmlns="http://www.w3.org/2000/svg">
<path d="M21.6211 5.62012L19.021 3.02246C18.8376 2.83824 18.6196 2.69208 18.3795 2.59236C18.1394 2.49264 17.882 2.44134 17.6221 2.44141C17.0923 2.44141 16.5942 2.64893 16.2207 3.02246L13.4229 5.82031C13.2386 6.00373 13.0925 6.22173 12.9928 6.4618C12.893 6.70187 12.8417 6.95928 12.8418 7.21924C12.8418 7.74902 13.0493 8.24707 13.4229 8.62061L15.4688 10.6665C14.9899 11.7221 14.324 12.6823 13.5034 13.501C12.6849 14.3236 11.7247 14.9918 10.6689 15.4736L8.62305 13.4277C8.43964 13.2435 8.22163 13.0973 7.98156 12.9976C7.74149 12.8979 7.48408 12.8466 7.22412 12.8467C6.69434 12.8467 6.19629 13.0542 5.82276 13.4277L3.02246 16.2231C2.83802 16.4069 2.69172 16.6253 2.592 16.8658C2.49228 17.1063 2.4411 17.3642 2.44141 17.6245C2.44141 18.1543 2.64893 18.6523 3.02246 19.0259L5.61768 21.6211C6.21338 22.2192 7.03613 22.5586 7.88086 22.5586C8.05908 22.5586 8.22998 22.5439 8.39844 22.5146C11.6895 21.9727 14.9536 20.2222 17.5879 17.5903C20.2197 14.9609 21.9678 11.6992 22.5171 8.39844C22.6831 7.39014 22.3486 6.35254 21.6211 5.62012Z" fill="#DD943B"/>
</svg>
