<svg width="26" height="26" viewBox="0 0 26 26" fill="none" xmlns="http://www.w3.org/2000/svg">
<path d="M13.0001 0.359375C13.4191 0.359375 13.821 0.525845 14.1173 0.822163C14.4137 1.11848 14.5801 1.52037 14.5801 1.93943V11.4198H24.0605C24.4795 11.4198 24.8814 11.5862 25.1777 11.8826C25.474 12.1789 25.6405 12.5808 25.6405 12.9998C25.6405 13.4189 25.474 13.8208 25.1777 14.1171C24.8814 14.4134 24.4795 14.5799 24.0605 14.5799H14.5801V24.0602C14.5801 24.4793 14.4137 24.8812 14.1173 25.1775C13.821 25.4738 13.4191 25.6403 13.0001 25.6403C12.581 25.6403 12.1791 25.4738 11.8828 25.1775C11.5865 24.8812 11.42 24.4793 11.42 24.0602V14.5799H1.93968C1.52062 14.5799 1.11873 14.4134 0.822407 14.1171C0.526089 13.8208 0.359619 13.4189 0.359619 12.9998C0.359619 12.5808 0.526089 12.1789 0.822407 11.8826C1.11873 11.5862 1.52062 11.4198 1.93968 11.4198H11.42V1.93943C11.42 1.52037 11.5865 1.11848 11.8828 0.822163C12.1791 0.525845 12.581 0.359375 13.0001 0.359375Z" fill="#F2F2F2"/>
</svg>
