<svg width="45" height="45" viewBox="0 0 45 45" fill="none" xmlns="http://www.w3.org/2000/svg">
<path d="M11.5311 22.5C12.0936 24.1875 12.3749 25.5938 12.3749 25.5938C14.6249 29.25 17.4374 28.6875 17.4374 30.6562C17.4374 31.5 16.8749 32.3438 16.0311 32.625L22.4999 37.6875L28.9686 32.9062C28.1249 32.3438 27.5624 31.7812 27.5624 30.9375C27.5624 28.6875 30.3749 29.5312 32.6249 25.875C32.6249 25.875 33.1874 24.75 33.4686 22.7813C34.3124 19.6875 35.1561 14.0625 34.8749 11.25H30.6561C30.6561 10.4062 30.9374 9.5625 30.9374 8.4375H34.0311C33.1874 4.5 31.2186 2.8125 27.8436 1.96875C26.4374 0.84375 24.4686 0 22.4999 0C20.5311 0 18.5624 0.84375 17.1561 1.96875C13.7811 2.8125 12.0936 4.5 10.9686 8.4375H14.0624C14.0624 9.5625 14.3436 10.4062 14.6249 11.25H10.1249C9.84362 14.0625 10.6874 19.6875 11.5311 22.5ZM31.4999 23.9062L30.6561 24.75L29.2499 26.4375C28.1249 27.8437 26.9999 28.6875 25.3124 28.9688L24.1874 29.25C23.0624 29.5312 21.6561 29.5312 20.2499 29.25L19.1249 28.9688C17.4374 28.4062 16.0311 27.5625 14.9061 25.875L14.3436 24.75L13.4999 23.9062L11.5311 22.5L20.2499 19.9688C21.6561 19.6875 23.0624 19.4062 24.4686 19.9688L33.4686 22.5L31.4999 23.9062ZM16.8749 8.4375C16.8749 5.34375 19.4061 2.8125 22.4999 2.8125C25.5936 2.8125 28.1249 5.34375 28.1249 8.4375C28.1249 11.5312 25.5936 14.0625 22.4999 14.0625C19.4061 14.0625 16.8749 11.5312 16.8749 8.4375Z" fill="#DD943B"/>
<path d="M43.5938 39.9375C39.9375 33.1875 36.2812 34.3125 32.625 33.75H32.3438L22.5 41.0625L12.6562 33.75H12.375C8.4375 34.0312 5.0625 33.1875 1.40625 39.9375C0.84375 41.0625 0.28125 43.0312 0 45H45C44.7188 43.0312 44.1562 41.0625 43.5938 39.9375Z" fill="#DD943B"/>
</svg>
