<svg width="45" height="45" viewBox="0 0 45 45" fill="none" xmlns="http://www.w3.org/2000/svg">
<path d="M22.5 39.375L26.25 35.625M30.9375 35.625C32.1807 35.625 33.373 35.1311 34.2521 34.2521C35.1311 33.373 35.625 32.1807 35.625 30.9375C35.625 29.6943 35.1311 28.502 34.2521 27.6229C33.373 26.7439 32.1807 26.25 30.9375 26.25C29.6943 26.25 28.502 26.7439 27.6229 27.6229C26.7439 28.502 26.25 29.6943 26.25 30.9375C26.25 32.1807 26.7439 33.373 27.6229 34.2521C28.502 35.1311 29.6943 35.625 30.9375 35.625V35.625ZM18.75 9.375L22.5 5.625L18.75 9.375ZM14.0625 18.75C15.3057 18.75 16.498 18.2561 17.3771 17.3771C18.2561 16.498 18.75 15.3057 18.75 14.0625C18.75 12.8193 18.2561 11.627 17.3771 10.7479C16.498 9.86886 15.3057 9.375 14.0625 9.375C12.8193 9.375 11.627 9.86886 10.7479 10.7479C9.86886 11.627 9.375 12.8193 9.375 14.0625C9.375 15.3057 9.86886 16.498 10.7479 17.3771C11.627 18.2561 12.8193 18.75 14.0625 18.75V18.75ZM15 30L30 15L15 30ZM10.3125 39.375C11.5557 39.375 12.748 38.8811 13.6271 38.0021C14.5061 37.123 15 35.9307 15 34.6875C15 33.4443 14.5061 32.252 13.6271 31.3729C12.748 30.4939 11.5557 30 10.3125 30C9.0693 30 7.87701 30.4939 6.99794 31.3729C6.11886 32.252 5.625 33.4443 5.625 34.6875C5.625 35.9307 6.11886 37.123 6.99794 38.0021C7.87701 38.8811 9.0693 39.375 10.3125 39.375V39.375ZM34.6875 15C35.9307 15 37.123 14.5061 38.0021 13.6271C38.8811 12.748 39.375 11.5557 39.375 10.3125C39.375 9.0693 38.8811 7.87701 38.0021 6.99794C37.123 6.11886 35.9307 5.625 34.6875 5.625C33.4443 5.625 32.252 6.11886 31.3729 6.99794C30.4939 7.87701 30 9.0693 30 10.3125C30 11.5557 30.4939 12.748 31.3729 13.6271C32.252 14.5061 33.4443 15 34.6875 15Z" stroke="#DD943B" stroke-width="4" stroke-linecap="round" stroke-linejoin="round"/>
</svg>
