<svg width="172" height="176" viewBox="0 0 172 176" fill="none" xmlns="http://www.w3.org/2000/svg">
<path d="M0 93.5C-3.2288e-08 91.3332 0.426786 89.1876 1.25599 87.1857C2.08519 85.1839 3.30057 83.3649 4.83274 81.8327C6.36491 80.3006 8.18385 79.0852 10.1857 78.256C12.1876 77.4268 14.3332 77 16.5 77C18.6668 77 20.8124 77.4268 22.8143 78.256C24.8161 79.0852 26.6351 80.3006 28.1673 81.8327C29.6994 83.3649 30.9148 85.1839 31.744 87.1857C32.5732 89.1876 33 91.3332 33 93.5V159.5C33 163.876 31.2616 168.073 28.1673 171.167C25.0729 174.262 20.8761 176 16.5 176C12.1239 176 7.92709 174.262 4.83274 171.167C1.73839 168.073 6.52086e-08 163.876 0 159.5V93.5Z" fill="#DD943B"/>
<path d="M44 91.663V151.393C43.9981 155.481 45.1354 159.489 47.2844 162.967C49.4333 166.445 52.5089 169.256 56.166 171.083L56.716 171.358C62.8197 174.409 69.5494 175.998 76.373 176H135.949C141.037 176.002 145.968 174.241 149.903 171.015C153.838 167.79 156.534 163.301 157.531 158.312L170.731 92.312C171.369 89.1206 171.291 85.8274 170.502 82.6698C169.714 79.5123 168.235 76.569 166.171 74.0521C164.108 71.5353 161.512 69.5076 158.57 68.1152C155.628 66.7227 152.415 66.0003 149.16 66H110V22C110 16.1652 107.682 10.5695 103.556 6.44365C99.4305 2.31785 93.8348 0 88 0C85.0826 0 82.2847 1.15892 80.2218 3.22182C78.1589 5.28473 77 8.08262 77 11V18.337C77 27.8573 73.9122 37.1208 68.2 44.737L52.8 65.263C47.0878 72.8792 44 82.1427 44 91.663Z" fill="#DD943B"/>
</svg>
