<svg width="32" height="33" viewBox="0 0 32 33" fill="none" xmlns="http://www.w3.org/2000/svg">
<path d="M17.6 3.37841C10.488 3.37841 4.70238 9.07761 4.52958 16.172V16.5H0.734375L6.48477 22.7304L12.0752 16.5H7.79997V16.172C7.97117 10.8872 12.2928 6.66001 17.6 6.66001C23.0176 6.66001 27.4096 11.0664 27.4096 16.5C27.4096 21.9336 23.0176 26.34 17.6 26.34C15.5111 26.3412 13.477 25.6722 11.7968 24.4312L9.54717 26.8376C11.8432 28.6422 14.6797 29.6217 17.6 29.6184C24.824 29.6184 30.6784 23.7464 30.6784 16.5C30.6784 9.25361 24.824 3.37841 17.6 3.37841ZM16 8.50001V16.5C16.0018 16.924 16.1702 17.3302 16.4688 17.6312L21.5888 22.7512C22.0416 22.4584 22.4688 22.1288 22.848 21.7464L19.2 18.1V8.50001H16Z" fill="#DD943B"/>
</svg>
